<svg width="25" height="25" viewBox="0 0 25 25" fill="none" xmlns="http://www.w3.org/2000/svg">
<path d="M16.2073 9.94558C15.8485 9.70724 15.4648 9.5025 15.067 9.33707C14.2393 8.99286 13.3601 8.81836 12.4545 8.81836C11.5489 8.81836 10.6697 8.99286 9.84188 9.33707C9.44405 9.5025 9.06039 9.70724 8.70154 9.94558C8.34615 10.1816 8.01203 10.4526 7.70837 10.7512C7.4047 11.0497 7.12899 11.3781 6.88886 11.7276C6.64637 12.0805 6.43805 12.4578 6.26969 12.8491C5.9194 13.6633 5.74178 14.5281 5.74178 15.419V19.669C5.74178 20.0329 5.44676 20.3279 5.08284 20.3279C4.56105 20.3279 4.13428 20.7455 4.13428 21.2618V22.8098C4.13428 23.3262 4.56105 23.7438 5.08284 23.7438H19.8261C20.3479 23.7438 20.7747 23.3262 20.7747 22.8098V21.2618C20.7747 20.7455 20.3479 20.3279 19.8261 20.3279C19.4622 20.3279 19.1671 20.0329 19.1671 19.669V15.419C19.1671 14.5281 18.9895 13.6633 18.6392 12.8491C18.4709 12.4578 18.2626 12.0804 18.02 11.7276C17.7799 11.3781 17.5042 11.0497 17.2005 10.7512C16.8969 10.4526 16.5628 10.1816 16.2073 9.94558ZM6.75963 15.419C6.75963 12.3341 9.31305 9.82177 12.4545 9.82177C15.5958 9.82177 18.1493 12.3341 18.1493 15.419C18.1493 18.1301 15.9514 20.3279 13.2403 20.3279H11.6686C8.95743 20.3279 6.75963 18.1301 6.75963 15.419ZM19.7569 21.3313V22.7403H5.15213V21.3313H19.7569Z" fill="white"/>
<path d="M16.2073 9.94558L16.1622 10.0135M16.2073 9.94558C15.8485 9.70724 15.4648 9.5025 15.067 9.33707M16.2073 9.94558C16.5628 10.1816 16.8969 10.4526 17.2005 10.7512C17.5042 11.0497 17.7799 11.3781 18.02 11.7276C18.2626 12.0804 18.4709 12.4578 18.6392 12.8491C18.9895 13.6633 19.1671 14.5281 19.1671 15.419V19.669C19.1671 20.0329 19.4622 20.3279 19.8261 20.3279C20.3479 20.3279 20.7747 20.7455 20.7747 21.2618V22.8098C20.7747 23.3262 20.3479 23.7438 19.8261 23.7438H5.08284C4.56105 23.7438 4.13428 23.3262 4.13428 22.8098V21.2618C4.13428 20.7455 4.56105 20.3279 5.08284 20.3279C5.44676 20.3279 5.74178 20.0329 5.74178 19.669V15.419C5.74178 14.5281 5.9194 13.6633 6.26969 12.8491M15.067 9.33707L15.0352 9.41348M15.067 9.33707C14.2393 8.99286 13.3601 8.81836 12.4545 8.81836C11.5489 8.81836 10.6697 8.99286 9.84188 9.33707C9.44405 9.5025 9.06039 9.70724 8.70154 9.94558M8.70154 9.94558L8.74665 10.0135M8.70154 9.94558C8.34615 10.1816 8.01203 10.4526 7.70837 10.7512C7.4047 11.0497 7.12899 11.3781 6.88886 11.7276C6.64637 12.0805 6.43805 12.4578 6.26969 12.8491M6.26969 12.8491L6.34571 12.8818M6.75963 15.419C6.75963 12.3341 9.31305 9.82178 12.4545 9.82178C15.5958 9.82178 18.1493 12.3341 18.1493 15.419C18.1493 18.1301 15.9514 20.3279 13.2403 20.3279H11.6686C8.95743 20.3279 6.75963 18.1301 6.75963 15.419ZM19.7569 21.3313V22.7403H5.15213V21.3313H19.7569Z" stroke="#F04E30" stroke-width="0.165517"/>
<path d="M12.4562 2.06104C12.1768 2.06104 11.9478 2.28409 11.9478 2.5622V7.2476C11.9478 7.5257 12.1767 7.74876 12.4561 7.74876C12.7355 7.74876 12.9645 7.5257 12.9645 7.2476V2.5622C12.9645 2.28409 12.7356 2.06104 12.4562 2.06104Z" fill="white" stroke="#F04E30" stroke-width="0.165517"/>
<path d="M8.74885 8.58919C9.00094 8.46827 9.10703 8.16805 8.98314 7.91828L6.89393 3.70709C6.77043 3.45812 6.46623 3.35608 6.21488 3.47658C5.96278 3.5975 5.85665 3.89771 5.98054 4.14748L8.06892 8.35688C8.0692 8.35749 8.0695 8.3581 8.06979 8.35871C8.1933 8.60766 8.49748 8.70968 8.74885 8.58919Z" fill="white" stroke="#F04E30" stroke-width="0.165517"/>
<path d="M5.78874 11.0713C5.96242 10.8528 5.92263 10.5371 5.70098 10.3669L1.94537 7.48231C1.72456 7.31271 1.40577 7.35086 1.23274 7.56857C1.05904 7.78714 1.09883 8.10279 1.32048 8.27303L5.07603 11.1576C5.29609 11.3267 5.61343 11.2893 5.78686 11.0736L5.78874 11.0713Z" fill="white" stroke="#F04E30" stroke-width="0.165517"/>
<path d="M18.017 3.70711C18.1406 3.45818 18.4447 3.35603 18.6961 3.4766L18.017 3.70711ZM18.017 3.70711L15.9278 7.91824C15.8039 8.168 15.91 8.46828 16.1621 8.58916L18.017 3.70711Z" fill="white"/>
<path d="M18.017 3.70711C18.1406 3.45818 18.4447 3.35603 18.6961 3.4766L18.017 3.70711ZM18.017 3.70711L15.9278 7.91824C15.8039 8.168 15.91 8.46828 16.1621 8.58916L18.017 3.70711Z" stroke="#F04E30" stroke-width="0.165517"/>
<mask id="mask0_1_664" style="mask-type:luminance" maskUnits="userSpaceOnUse" x="18" y="6" width="7" height="6">
<path d="M24.0631 6.63232H18.27V11.5978H24.0631V6.63232Z" fill="white"/>
</mask>
<g mask="url(#mask0_1_664)">
<path d="M23.7438 7.5178C23.5425 7.26448 23.1724 7.22048 22.916 7.4174L23.1177 7.67994C23.2317 7.59231 23.3966 7.61288 23.4847 7.72377L23.7438 7.5178ZM22.916 7.4174L19.1605 10.302L19.3621 10.5645L23.1177 7.67994L22.916 7.4174ZM19.1605 10.302C18.9024 10.5002 18.8557 10.8685 19.0584 11.1236L19.3175 10.9176C19.2307 10.8084 19.2497 10.6508 19.3621 10.5645L19.1605 10.302ZM19.0584 11.1236C19.2596 11.3769 19.6298 11.4209 19.8862 11.224L19.6845 10.9614C19.5705 11.0491 19.4056 11.0285 19.3175 10.9176L19.0584 11.1236ZM19.8862 11.224L23.6417 8.33938L23.4401 8.07686L19.6845 10.9614L19.8862 11.224ZM23.6417 8.33938C23.8997 8.14117 23.9465 7.77284 23.7438 7.5178L23.4847 7.72377C23.5714 7.83296 23.5525 7.9905 23.4401 8.07686L23.6417 8.33938Z" fill="#F04E30"/>
</g>
<mask id="mask1_1_664" style="mask-type:luminance" maskUnits="userSpaceOnUse" x="10" y="10" width="6" height="6">
<path d="M15.9328 10.5796H10.9673V15.5451H15.9328V10.5796Z" fill="white"/>
</mask>
<g mask="url(#mask1_1_664)">
<path d="M14.8368 12.3351C14.4942 11.9925 14.0946 11.7232 13.6496 11.5352L13.5208 11.8401C13.9263 12.0114 14.2902 12.2567 14.6027 12.5692L14.8368 12.3351ZM13.6496 11.5352C13.1887 11.3403 12.6991 11.2417 12.1951 11.2417V11.5727C12.6552 11.5727 13.101 11.6627 13.5208 11.8401L13.6496 11.5352ZM12.1951 11.2417C11.8827 11.2417 11.6294 11.4949 11.6294 11.8074H11.9604C11.9604 11.6778 12.0655 11.5727 12.1951 11.5727V11.2417ZM11.6294 11.8074C11.6294 12.1199 11.8827 12.3732 12.1951 12.3732V12.0421C12.0655 12.0421 11.9604 11.937 11.9604 11.8074H11.6294ZM12.1951 12.3732C13.6306 12.3732 14.7987 13.5413 14.7987 14.9768H15.1298C15.1298 13.3585 13.8135 12.0421 12.1951 12.0421V12.3732ZM14.7987 14.9768C14.7987 15.2893 15.052 15.5426 15.3645 15.5426V15.2115C15.2349 15.2115 15.1298 15.1064 15.1298 14.9768H14.7987ZM15.3645 15.5426C15.677 15.5426 15.9303 15.2893 15.9303 14.9768H15.5992C15.5992 15.1064 15.4941 15.2115 15.3645 15.2115V15.5426ZM15.9303 14.9768C15.9303 14.4728 15.8315 13.9832 15.6367 13.5223L15.3318 13.6511C15.5093 14.0709 15.5992 14.5167 15.5992 14.9768H15.9303ZM15.6367 13.5223C15.4488 13.0773 15.1795 12.6778 14.8368 12.3351L14.6027 12.5692C14.9153 12.8818 15.1605 13.2457 15.3318 13.6511L15.6367 13.5223Z" fill="#F04E30"/>
</g>
</svg>
